<?xml version="1.0" encoding="UTF-8"?>
<svg width="52px" height="27px" viewBox="0 0 52 27" version="1.1" xmlns="http://www.w3.org/2000/svg" xmlns:xlink="http://www.w3.org/1999/xlink">
    <title>AEAE2894-0DD4-435E-BE59-B8CD8956FBC2</title>
    <g id="Streamdeck-views" stroke="none" stroke-width="1" fill="none" fill-rule="evenodd">
        <g id="streamdeck-icons-NEW" transform="translate(-348.000000, -934.000000)" fill="#00FFF6" fill-rule="nonzero">
            <g id="voicemod-overwolf-icon" transform="translate(338.000000, 911.000000)">
                <g id="voicemod-vertical-logo" transform="translate(10.000000, 23.000000)">
                    <path d="M12.5133868,20.1502087 C14.3045907,20.1502087 15.412199,21.4293419 15.412199,23.2209631 C15.412199,25.0125843 14.3041734,26.2921348 12.5133868,26.2921348 C10.722183,26.2921348 9.6141573,25.0121669 9.6141573,23.2209631 C9.6141573,21.4297592 10.722183,20.1502087 12.5133868,20.1502087 Z M22.494382,20.1497913 C23.859069,20.1497913 24.7968218,20.8321348 24.9679294,21.9414125 L24.8819583,22.0248796 L23.8582343,22.0248796 L23.7747673,21.9414125 C23.6044944,21.4289246 23.1779775,21.1729588 22.4952167,21.1735152 C21.3016372,21.1735152 20.7895666,22.026549 20.7895666,23.2184591 C20.7895666,24.4103692 21.3016372,25.2659069 22.4952167,25.2659069 C23.1779775,25.2659069 23.6044944,25.0096629 23.7747673,24.4128732 L23.856565,24.3306581 L24.8794543,24.3306581 L24.9654254,24.4141252 C24.7943178,25.6085393 23.856565,26.2921348 22.491878,26.2921348 C20.6138684,26.2921348 19.5926485,25.0121669 19.5926485,23.2209631 C19.5926485,21.4297592 20.6163724,20.1497913 22.494382,20.1497913 Z M42.9651043,20.1502087 C44.7558909,20.1502087 45.8651685,21.4289246 45.8651685,23.2205457 C45.8651685,25.0121669 44.7558909,26.2921348 42.9651043,26.2921348 C41.1743178,26.2921348 40.0658748,25.0121669 40.0658748,23.2209631 C40.0658748,21.4297592 41.1743178,20.1502087 42.9651043,20.1502087 Z M4.46548957,20.2349278 L4.59069021,20.3183949 L6.0375923,23.460931 C6.06949852,23.5307703 6.13922084,23.5755713 6.21600321,23.5755713 C6.29278558,23.5755713 6.36250791,23.5307703 6.39441413,23.460931 L7.84131621,20.3183949 L7.96651685,20.2349278 L9.1776244,20.2349278 L6.32221509,26.2086677 L6.10645265,26.2086677 L3.25104334,20.2349278 L4.46548957,20.2349278 Z M49.0957624,20.2407705 C51.2279294,20.2407705 51.9945746,21.3496308 51.9945746,23.2263884 C51.9945746,25.1031461 51.2279294,26.2086677 49.0957624,26.2086677 L47.2177528,26.2086677 L47.1317817,26.1252006 L47.1317817,20.3242376 L47.2177528,20.2407705 L49.0957624,20.2407705 Z M33.3868379,20.2370144 L33.472809,20.3204815 L35.3174318,23.7288604 C35.3509607,23.7944571 35.4184177,23.8357355 35.4920867,23.8357355 C35.5657556,23.8357355 35.6332127,23.7944571 35.6667416,23.7288604 L37.5105297,20.3204815 L37.5965008,20.2370144 L38.6035313,20.2370144 L38.6895024,20.3204815 L38.6895024,26.1214446 L38.6035313,26.2044944 L37.6123596,26.2044944 L37.5288925,26.1210273 L37.5288925,22.7936116 L37.4454254,22.7936116 L35.6099839,26.2086677 L35.3771108,26.2086677 L33.5433387,22.7956982 L33.4598716,22.7956982 L33.4598716,26.1214446 L33.3764045,26.2049117 L32.3818941,26.2049117 L32.298427,26.1214446 L32.298427,20.3204815 L32.3818941,20.2370144 L33.3868379,20.2370144 Z M17.998427,20.2349278 L18.0839807,20.3200642 L18.0839807,26.1210273 L17.998427,26.2065811 L16.9755377,26.2065811 L16.8895666,26.1210273 L16.8895666,20.3200642 L16.9755377,20.2349278 L17.998427,20.2349278 Z M30.5051364,20.2349278 L30.5902729,20.3200642 L30.5902729,21.1735152 L30.5051364,21.2586517 L27.6902087,21.2586517 L27.6050722,21.3437881 L27.6050722,22.5382022 L27.6902087,22.6233387 L30.3340289,22.6233387 L30.4191653,22.7084751 L30.4191653,23.5619262 L30.3340289,23.6470626 L27.6902087,23.6470626 L27.6050722,23.7330337 L27.6050722,25.0977207 L27.6902087,25.1828571 L30.5051364,25.1828571 L30.5902729,25.2679936 L30.5902729,26.1210273 L30.5051364,26.2065811 L26.4966292,26.2065811 L26.4110754,26.1210273 L26.4110754,20.3200642 L26.4966292,20.2349278 L30.5051364,20.2349278 Z M12.5133868,21.1739326 C11.4049438,21.1739326 10.8073194,22.0269663 10.8073194,23.2188764 C10.8073194,24.4107865 11.4049438,25.2663242 12.5133868,25.2663242 C13.6218299,25.2663242 14.2190369,24.4141252 14.2190369,23.2205457 C14.2190369,22.0269663 13.6222472,21.1756019 12.5133868,21.1756019 L12.5133868,21.1739326 Z M42.9651043,21.1739326 C41.8566613,21.1739326 41.2594543,22.0269663 41.2594543,23.2188764 C41.2594543,24.4107865 41.8566613,25.2663242 42.9651043,25.2663242 C44.0735474,25.2663242 44.6707544,24.4132905 44.6707544,23.2188764 C44.6707544,22.0244623 44.0739647,21.1739326 42.9651043,21.1739326 Z M49.1792295,21.2607384 L48.4113323,21.2607384 L48.3278652,21.3442055 L48.3278652,25.1002247 L48.4113323,25.1836918 L49.1792295,25.1836918 C50.3732263,25.1836918 50.7997432,24.5860674 50.7997432,23.2222151 C50.7997432,21.8583628 50.3732263,21.2607384 49.1792295,21.2607384 Z M35.7990369,0.011685292 C35.8402527,0.011685292 35.8806949,0.0213484377 35.9171678,0.0397081755 L35.952199,0.0609309791 L51.9945746,11.4854896 L46.0579775,11.4854896 L39.8872552,7.09136437 C39.7123484,6.96634098 39.482201,6.94966242 39.2910957,7.04816123 C39.1173636,7.13770561 39.0024378,7.30875873 38.9832368,7.50064868 L38.9803852,7.5587801 L38.9803852,16.4400963 C38.9805496,16.4951976 38.9633155,16.5489445 38.9311396,16.5936758 C38.89045,16.6509544 38.8286494,16.6896974 38.7593644,16.7013624 C38.7039363,16.7106943 38.6473597,16.7020832 38.5976588,16.6773772 L38.5617978,16.6558587 L25.1302729,7.09136437 C24.955366,6.96634098 24.7252187,6.94966242 24.5341134,7.04816123 C24.3603813,7.13770561 24.2454554,7.30875873 24.2262545,7.50064868 L24.2234029,7.5587801 L24.2183949,13.2604173 L20.7787159,13.2604173 L20.7787159,0.276693419 C20.7791218,0.177996606 20.8343421,0.0877025557 20.9220157,0.0423752909 C20.9971646,0.00352334963 21.0854831,0.0032264271 21.1600428,0.0396611114 L21.1960514,0.0609309791 L34.6271589,9.62542536 C34.8020658,9.75044874 35.0322131,9.76712731 35.2233184,9.6686285 C35.3970505,9.57908412 35.5119763,9.408031 35.5311773,9.21614105 L35.5340289,9.15800963 L35.5340289,0.276693419 C35.5340289,0.130333528 35.652677,0.011685292 35.7990369,0.011685292 Z M4.92455859,0.0116853933 L13.6765008,8.25823435 C13.8429919,8.41565904 14.0872174,8.45885674 14.2976071,8.36809329 C14.4904642,8.28489347 14.6209478,8.10377191 14.6411461,7.89767234 L14.6438844,7.84089888 L14.6438844,0.0116853933 L18.0839807,0.0116853933 L18.0839807,16.4400963 C18.0839807,16.5457555 18.0210261,16.6412594 17.9240228,16.6831431 C17.8408772,16.7190434 17.7462621,16.7096687 17.672453,16.6606766 L17.6374318,16.6329053 L0.0116853933,0.0116853933 L4.92455859,0.0116853933 Z" id="Shape"></path>
                </g>
            </g>
        </g>
    </g>
</svg>